<svg version="1.0" xmlns="http://www.w3.org/2000/svg"
 width="325.000000pt" height="285.000000pt" viewBox="0 0 325.000000 285.000000"
 preserveAspectRatio="xMidYMid meet">

<g transform="translate(0.000000,285.000000) scale(0.100000,-0.100000)"
fill="#fff" stroke="none">
<path d="M1944 2437 c-3 -8 -4 -49 -2 -93 l3 -79 160 -3 c88 -1 166 -4 173 -7
7 -2 -107 -125 -265 -285 -153 -155 -279 -284 -281 -288 -1 -4 27 -37 63 -72
l65 -65 285 285 c191 191 286 279 289 269 3 -7 7 -86 8 -174 l3 -160 90 0 90
0 3 343 2 342 -340 0 c-275 0 -342 -3 -346 -13z"/>
<path d="M1155 1110 c-154 -154 -283 -276 -287 -272 -4 4 -9 82 -10 172 l-3
165 -90 0 -90 0 -3 -343 -2 -342 342 2 343 3 0 90 0 90 -160 3 c-88 1 -166 4
-173 7 -7 2 51 69 139 157 83 84 210 213 282 286 l131 132 -64 65 c-35 36 -67
65 -70 65 -3 0 -131 -126 -285 -280z"/>
</g>
</svg>